<svg xmlns="http://www.w3.org/2000/svg" version="1.1" width="275" height="275" viewBox="0 0 275 275"><defs><clipPath id="clip-1"><rect x="0" y="25.000000000000007" width="250" height="250"/></clipPath><clipPath id="clip-2"><rect x="0" y="25.000000000000007" width="250" height="250" transform="rotate(35.00000000000014 181.6355919340455 137.6356713388884)"/></clipPath></defs><path fill="none" stroke="#000000" d="M 35.7143,275 L 35.7143,25" style="stroke-width: 2px;opacity: 0.1" stroke-width="2" opacity="0.1"/><path fill="none" stroke="#000000" d="M 0,239.286 L 250,239.286" style="stroke-width: 2px;opacity: 0.1" stroke-width="2" opacity="0.1"/><path fill="none" stroke="#000000" d="M -3.45,244.886 C -3.1,242.786 0.749999,239.636 1.8,239.286 C 0.749999,238.936 -3.1,235.786 -3.45,233.686" transform="rotate(180 1.7999989100864937 239.2857142857143)" style="stroke-width: 2px;opacity: 1;stroke-linejoin: round;stroke-linecap: round" stroke-width="2" opacity="1" stroke-linejoin="round" stroke-linecap="round"/><path fill="none" stroke="#000000" d="M 35.7143,239.286 S 35.7143,239.286 1.05,239.286" style="stroke-width: 2px;opacity: 1" stroke-width="2" opacity="1"/><path fill="none" stroke="#000000" d="M 244.45,244.886 C 244.8,242.786 248.65,239.636 249.7,239.286 C 248.65,238.936 244.8,235.786 244.45,233.686" transform="" style="stroke-width: 2px;opacity: 1;stroke-linejoin: round;stroke-linecap: round" stroke-width="2" opacity="1" stroke-linejoin="round" stroke-linecap="round"/><path fill="none" stroke="#000000" d="M 35.7143,239.286 S 35.7143,239.286 248.95,239.286" style="stroke-width: 2px;opacity: 1" stroke-width="2" opacity="1"/><path fill="none" stroke="#000000" d="M 31.2143,279.55 C 31.5643,277.45 35.4143,274.3 36.4643,273.95 C 35.4143,273.6 31.5643,270.45 31.2143,268.35" transform="rotate(90 36.464285714285715 273.949993460519)" style="stroke-width: 2px;opacity: 1;stroke-linejoin: round;stroke-linecap: round" stroke-width="2" opacity="1" stroke-linejoin="round" stroke-linecap="round"/><path fill="none" stroke="#000000" d="M 35.7143,239.286 S 35.7143,239.286 35.7143,273.95" style="stroke-width: 2px;opacity: 1" stroke-width="2" opacity="1"/><path fill="none" stroke="#000000" d="M 31.2143,31.65 C 31.5643,29.55 35.4143,26.4 36.4643,26.05 C 35.4143,25.7 31.5643,22.55 31.2143,20.45" transform="rotate(-90 36.464285714285715 26.049993460519005)" style="stroke-width: 2px;opacity: 1;stroke-linejoin: round;stroke-linecap: round" stroke-width="2" opacity="1" stroke-linejoin="round" stroke-linecap="round"/><path fill="none" stroke="#000000" d="M 35.7143,239.286 S 35.7143,239.286 35.7143,26.05" style="stroke-width: 2px;opacity: 1" stroke-width="2" opacity="1"/><ellipse cx="181.9914364801771" cy="136.86135065159894" rx="4" ry="4" fill="#000000" stroke="#000000" style="stroke-width: 2px;stroke-opacity: 1;fill-opacity: 1" stroke-width="2" clip-path="url(#clip-1)" stroke-opacity="1" stroke-dasharray="0" fill-opacity="1"/><path fill="none" stroke="#11accd" d="M 174.886,144.836 C 175.336,142.136 180.286,138.086 181.636,137.636 C 180.286,137.186 175.336,133.136 174.886,130.436" transform="rotate(-35.00000000000014 181.6355919340455 137.6356713388884)" style="stroke-width: 3px;stroke-linejoin: round;stroke-linecap: round" stroke-width="3" clip-path="url(#clip-2)" stroke-linejoin="round" stroke-linecap="round"/><path fill="none" stroke="#11accd" d="M 35.7143,239.286 S 35.7143,239.286 180.886,137.636" style="stroke-width: 3px" stroke-width="3" clip-path="url(#clip-1)"/><path fill="#000000" stroke="#1fab54" d="M 82.8982,239.286 A 47.184,47.184 0 0,0 74.3651,212.222" style="stroke-width: 2px;stroke-opacity: 1;fill-opacity: 0" stroke-width="2" clip-path="url(#clip-1)" stroke-opacity="1" stroke-dasharray="0" fill-opacity="0"/></svg>